<svg width="13" height="12" viewBox="0 0 13 12" fill="none" xmlns="http://www.w3.org/2000/svg">
<path d="M10.2562 7.33334V11.3333M8.02544 9.33334H12.487M2.07672 4.66667H3.5639C3.95832 4.66667 4.33659 4.5262 4.61549 4.27615C4.89439 4.0261 5.05108 3.68696 5.05108 3.33334V2.00001C5.05108 1.64638 4.89439 1.30724 4.61549 1.0572C4.33659 0.807147 3.95832 0.666672 3.5639 0.666672H2.07672C1.68229 0.666672 1.30402 0.807147 1.02512 1.0572C0.746223 1.30724 0.589539 1.64638 0.589539 2.00001V3.33334C0.589539 3.68696 0.746223 4.0261 1.02512 4.27615C1.30402 4.5262 1.68229 4.66667 2.07672 4.66667ZM9.51261 4.66667H10.9998C11.3942 4.66667 11.7725 4.5262 12.0514 4.27615C12.3303 4.0261 12.487 3.68696 12.487 3.33334V2.00001C12.487 1.64638 12.3303 1.30724 12.0514 1.0572C11.7725 0.807147 11.3942 0.666672 10.9998 0.666672H9.51261C9.11819 0.666672 8.73992 0.807147 8.46102 1.0572C8.18212 1.30724 8.02544 1.64638 8.02544 2.00001V3.33334C8.02544 3.68696 8.18212 4.0261 8.46102 4.27615C8.73992 4.5262 9.11819 4.66667 9.51261 4.66667ZM2.07672 11.3333H3.5639C3.95832 11.3333 4.33659 11.1929 4.61549 10.9428C4.89439 10.6928 5.05108 10.3536 5.05108 10V8.66667C5.05108 8.31305 4.89439 7.97391 4.61549 7.72386C4.33659 7.47381 3.95832 7.33334 3.5639 7.33334H2.07672C1.68229 7.33334 1.30402 7.47381 1.02512 7.72386C0.746223 7.97391 0.589539 8.31305 0.589539 8.66667V10C0.589539 10.3536 0.746223 10.6928 1.02512 10.9428C1.30402 11.1929 1.68229 11.3333 2.07672 11.3333Z" stroke="black" stroke-linecap="round" stroke-linejoin="round"/>
</svg>
