<svg width="188" height="175" viewBox="0 0 188 175" fill="none" xmlns="http://www.w3.org/2000/svg">
<circle cx="102" cy="105" r="70" fill="#F9F8FC"/>
<path d="M138 105C138 124.882 121.882 141 102 141C82.12 141 66 124.882 66 105C66 85.12 82.12 69 102 69C121.882 69 138 85.12 138 105Z" fill="#FFCC4D"/>
<path d="M122.914 104.594C122.794 104.324 119.916 98 114 98C108.086 98 105.206 104.324 105.086 104.594C104.902 105.008 105.022 105.492 105.376 105.776C105.726 106.06 106.228 106.07 106.596 105.804C106.62 105.786 109.12 104 114 104C118.852 104 121.348 105.762 121.404 105.802C121.58 105.934 121.792 106 122 106C122.22 106 122.442 105.926 122.624 105.782C122.978 105.498 123.1 105.01 122.914 104.594ZM98.9141 104.594C98.7941 104.324 95.9161 98 90.0001 98C84.0861 98 81.2061 104.324 81.0861 104.594C80.9021 105.008 81.0221 105.492 81.3741 105.776C81.7261 106.06 82.2281 106.07 82.5941 105.804C82.6201 105.786 85.1181 104 90.0001 104C94.8521 104 97.3481 105.762 97.4041 105.802C97.5801 105.934 97.7921 106 98.0001 106C98.2201 106 98.4421 105.926 98.6241 105.782C98.9801 105.498 99.0981 105.01 98.9141 104.594ZM128 101C127.208 101 126.456 100.524 126.142 99.742C122.586 90.852 113.696 88.98 113.606 88.96C112.524 88.744 111.82 87.69 112.038 86.606C112.254 85.522 113.308 84.824 114.392 85.038C114.844 85.128 125.504 87.374 129.856 98.254C130.266 99.28 129.766 100.444 128.74 100.854C128.5 100.954 128.248 101 128 101ZM76.0001 101C75.7521 101 75.5021 100.954 75.2581 100.856C74.2321 100.446 73.7341 99.282 74.1441 98.256C78.4961 87.376 89.1561 85.13 89.6081 85.04C90.6941 84.828 91.7441 85.526 91.9621 86.608C92.1781 87.688 91.4781 88.74 90.4001 88.96C90.0301 89.036 81.3881 90.92 77.8581 99.742C77.5441 100.524 76.7921 101 76.0001 101ZM102 113C94.7541 113 89.9461 112.156 84.0001 111C82.6421 110.738 80.0001 111 80.0001 115C80.0001 123 89.1901 133 102 133C114.808 133 124 123 124 115C124 111 121.358 110.736 120 111C114.054 112.156 109.246 113 102 113Z" fill="#664500"/>
<path d="M84 115C84 115 90 117 102 117C114 117 120 115 120 115C120 115 116 123 102 123C88 123 84 115 84 115Z" fill="white"/>
<path d="M87.694 125.458C86.334 130.812 80.894 134.048 75.54 132.688C70.188 131.33 66.95 125.89 68.308 120.536C69.666 115.182 80.982 103.12 82.922 103.612C84.862 104.106 89.052 120.106 87.694 125.458ZM116.266 125.458C117.626 130.812 123.066 134.048 128.42 132.688C133.774 131.33 137.012 125.89 135.652 120.536C134.292 115.182 122.976 103.12 121.036 103.612C119.1 104.106 114.908 120.106 116.266 125.458Z" fill="#5DADEC"/>
<circle cx="37" cy="80" r="8" fill="#E1DCEF"/>
<circle cx="2" cy="46" r="2" fill="#E1DCEF"/>
<circle cx="4" cy="115" r="4" fill="#E1DCEF"/>
<circle cx="166" cy="34" r="10" fill="#E1DCEF"/>
<circle cx="94" cy="6" r="6" fill="#E1DCEF"/>
<circle cx="154" cy="84" r="4" fill="#E1DCEF"/>
<circle cx="180" cy="152" r="8" fill="#E1DCEF"/>
<circle cx="29" cy="148" r="5" fill="#E1DCEF"/>
<circle cx="33" cy="23" r="4" fill="#E1DCEF"/>
</svg>
